# xmcd
#
# Track frame offsets:
#	150
#	31529
#	57833
#	83128
#	98721
#	116165
#	142121
#	175634
#	193973
#	217776
#	234988
#
# Disc length: 3422 seconds
#
# Revision: 1
# Processed by: cddbd v1.5.2PL0 Copyright (c) Steve Scherf et al.
# Submitted via: audiograbber 1.83.01
#
DISCID=8b0d5c0b
DTITLE=Various Artist - Jackpot Garantierte Hit-Mix-Power CD 1
DYEAR=2012
DGENRE=Disco Fox
TTITLE0=Andreas Martin - Hitmix
TTITLE1=Howard Carpendale - Howard Carpendale's Dance-Hit-Mix (Medley)
TTITLE2=Michelle - Hit-Medley
TTITLE3=G.G. Anderson - G.G.'s Mega-Mix '98
TTITLE4=Marianne Rosenberg - Der Marianne Rosenberg Hitmix (Single Version)
TTITLE5=Jörg Bausch - Hit Mix 2010
TTITLE6=Matthias Carras - 100% Power Hitmix
TTITLE7=Anna-Maria Zimmermann - DJ Mix (Medley)
TTITLE8=Nic - Hit-Mix
TTITLE9=Mickie Krause - Megamix 2003 (Medley)
TTITLE10=Peter Wackel - Ü30-Party-Hitmix
EXTD=
EXTT0=
EXTT1=
EXTT2=
EXTT3=
EXTT4=
EXTT5=
EXTT6=
EXTT7=
EXTT8=
EXTT9=
EXTT10=
PLAYORDER=
